<svg id="Layer_1" data-name="Layer 1" xmlns="http://www.w3.org/2000/svg" viewBox="0 0 218.19 57.51"><defs><style>.cls-1{fill:#7b936c;}.cls-2{fill:#4a549a;}.cls-2,.cls-5{stroke:#fff;stroke-miterlimit:10;stroke-width:2px;}.cls-3,.cls-6{fill:#3e415c;}.cls-4{fill:#171c48;}.cls-5{fill:none;stroke-linecap:round;}.cls-6{font-size:12.95px;font-family:NotoSans-SemiBold, Noto Sans;font-weight:600;}</style></defs><title>Artboard 1</title><path class="cls-1" d="M27,24S22.56,17.69,22.5,13.6C22.34,2.55,29.94,0,29.94,0S39.49,7.08,41.1,15.89c.71,3.83-4.41,9.7-4.41,9.7"/><path class="cls-2" d="M37.79,33.58A13.07,13.07,0,1,1,24.72,20.51,13.07,13.07,0,0,1,37.79,33.58Z"/><path class="cls-1" d="M23.07,48.8s-4.94,4.45-8.75,4.59C4,53.79,0,46.48,0,46.48s4.62-9.41,12.54-11.17c3.44-.77,10,4.06,10,4.06"/><circle class="cls-2" cx="45.52" cy="33.02" r="13.07" transform="translate(-6.95 12.79) rotate(-14.87)"/><circle class="cls-2" cx="32.59" cy="43.14" r="13.07" transform="matrix(0.16, -0.99, 0.99, 0.16, -15.21, 68.4)"/><path class="cls-3" d="M66.71,10.73C66.71,7.81,67.33,0,77.79,0c9.27,0,10.82,6.09,11,9.54A1.29,1.29,0,0,1,87.68,11l-5,1.11c-.88.17-1.36-.22-1.45-1.15-.18-2.12-.93-3.36-3.45-3.36-3.26,0-3.48,2.08-3.48,5.48v6.36c0,3.4.22,5.47,3.48,5.47s3.49-2.07,3.49-4.24H78.72a1.2,1.2,0,0,1-1.32-1.32V15.81a1.19,1.19,0,0,1,1.32-1.33h8.83a1.17,1.17,0,0,1,1.32,1.33v6c0,2.91-.61,10.72-11.08,10.72S66.71,24.68,66.71,21.77Z"/><path class="cls-3" d="M114.17,30.2c0,1-.44,1.5-1.32,1.5H107.9a1.18,1.18,0,0,1-1.32-1.32V26.53a1.17,1.17,0,0,0-1.33-1.32h-3.79a1.19,1.19,0,0,0-1.33,1.32v3.85a1.17,1.17,0,0,1-1.32,1.32h-5c-.84,0-1.32-.53-1.32-1.5V11.48C92.54,5.92,93.42,0,103.35,0s10.82,5.92,10.82,11.48Zm-7.59-18.72c0-2.12-.31-3.18-3.23-3.18s-3.22,1.06-3.22,3.18v4.81a1.22,1.22,0,0,0,1.33,1.33h3.79a1.23,1.23,0,0,0,1.33-1.37Z"/><path class="cls-3" d="M124.55,9.71a1.17,1.17,0,0,0-1.33-1.32H117a1.21,1.21,0,0,1-1.32-1.33V2.12A1.19,1.19,0,0,1,117,.79h22.61A1.17,1.17,0,0,1,141,2.12V7.06a1.19,1.19,0,0,1-1.32,1.33h-6.19a1.19,1.19,0,0,0-1.32,1.32V30.38a1.19,1.19,0,0,1-1.32,1.32h-4.95a1.21,1.21,0,0,1-1.32-1.32Z"/><path class="cls-3" d="M149.89.79a1.21,1.21,0,0,1,1.32,1.33v11a1.21,1.21,0,0,0,1.33,1.32h4.24a1.18,1.18,0,0,0,1.32-1.32v-11A1.21,1.21,0,0,1,159.42.79h5a1.17,1.17,0,0,1,1.32,1.33V30.38a1.19,1.19,0,0,1-1.32,1.32h-5a1.21,1.21,0,0,1-1.32-1.32v-7a1.17,1.17,0,0,0-1.32-1.32h-4.24a1.19,1.19,0,0,0-1.33,1.32v7a1.19,1.19,0,0,1-1.32,1.32h-4.95a1.21,1.21,0,0,1-1.32-1.32V2.12A1.17,1.17,0,0,1,144.94.79Z"/><path class="cls-3" d="M190,.79a1.17,1.17,0,0,1,1.32,1.33V7.06A1.19,1.19,0,0,1,190,8.39H179.29A1.18,1.18,0,0,0,178,9.71v1.42a1.21,1.21,0,0,0,1.32,1.32h6.84a1.17,1.17,0,0,1,1.33,1.33v4.94A1.19,1.19,0,0,1,186.13,20h-6.84A1.19,1.19,0,0,0,178,21.37v1.41a1.21,1.21,0,0,0,1.32,1.33H190a1.17,1.17,0,0,1,1.32,1.32v4.95A1.17,1.17,0,0,1,190,31.7H171.43a1.21,1.21,0,0,1-1.32-1.32V2.12A1.19,1.19,0,0,1,171.43.79Z"/><path class="cls-3" d="M218,29.32a1.57,1.57,0,0,1-1.46,2.38h-5a1.08,1.08,0,0,1-1-.62l-4.59-8.87a.46.46,0,0,0-.35-.22h-1.77a1.32,1.32,0,0,0-1.37,1.37v7A1.32,1.32,0,0,1,201,31.7h-4.94a1.32,1.32,0,0,1-1.37-1.37V2.16A1.32,1.32,0,0,1,196.07.79h9.67c7.85,0,11,3.36,11,10.6,0,4.11-1,7-3.35,8.65a.47.47,0,0,0-.13.58ZM203.75,8.39a1.32,1.32,0,0,0-1.37,1.37V13a1.32,1.32,0,0,0,1.37,1.37H206c2.12,0,3.18-.26,3.18-3s-1.06-3-3.18-3Z"/><polygon class="cls-4" points="31.85 32.9 34.69 32.46 35.3 33.85 37.53 34.79 35.3 35.74 34.69 37.13 31.85 36.68 29 37.13 28.4 35.74 26.16 34.79 28.4 33.85 29 32.46 31.85 32.9"/><polygon class="cls-4" points="45.9 22.78 48.75 22.34 49.35 23.73 51.59 24.67 49.35 25.62 48.75 27.01 45.9 26.56 43.06 27.01 42.45 25.62 40.21 24.67 42.45 23.73 43.06 22.34 45.9 22.78"/><polygon class="cls-4" points="23.97 23.34 26.82 22.9 27.42 24.29 29.66 25.23 27.42 26.18 26.82 27.57 23.97 27.12 21.13 27.57 20.53 26.18 18.29 25.23 20.53 24.29 21.13 22.9 23.97 23.34"/><path class="cls-5" d="M34.84,24.67A23,23,0,0,1,30.23,6.45"/><path class="cls-5" d="M18.85,44.32a16.55,16.55,0,0,0-12.38.38"/><text class="cls-6" transform="translate(67.71 53.59)">The App for Community</text></svg>