<svg id="Layer_1" data-name="Layer 1" xmlns="http://www.w3.org/2000/svg" viewBox="0 0 218.19 57.51"><defs><style>.cls-1{fill:#7b936c;}.cls-2{fill:#4a549a;}.cls-2,.cls-5{stroke:#fff;stroke-miterlimit:10;stroke-width:2px;}.cls-3{fill:#3e415c;}.cls-4{fill:#171c48;}.cls-5{fill:none;stroke-linecap:round;}</style></defs><title>logo-white-bg</title><path class="cls-1" d="M27,24S22.56,17.69,22.5,13.6C22.34,2.55,29.94,0,29.94,0S39.49,7.08,41.1,15.89c.71,3.83-4.41,9.7-4.41,9.7"/><path class="cls-2" d="M37.79,33.58A13.07,13.07,0,1,1,24.72,20.51,13.07,13.07,0,0,1,37.79,33.58Z"/><path class="cls-1" d="M23.07,48.8s-4.94,4.45-8.75,4.59C4,53.79,0,46.48,0,46.48s4.62-9.41,12.54-11.17c3.44-.77,10,4.06,10,4.06"/><circle class="cls-2" cx="45.52" cy="33.02" r="13.07" transform="translate(-6.95 12.79) rotate(-14.87)"/><circle class="cls-2" cx="32.59" cy="43.14" r="13.07" transform="matrix(0.16, -0.99, 0.99, 0.16, -15.21, 68.4)"/><path class="cls-3" d="M66.71,10.73C66.71,7.81,67.33,0,77.79,0c9.27,0,10.82,6.09,11,9.54A1.29,1.29,0,0,1,87.68,11l-5,1.11c-.88.17-1.36-.22-1.45-1.15-.18-2.12-.93-3.36-3.45-3.36-3.26,0-3.48,2.08-3.48,5.48v6.36c0,3.4.22,5.47,3.48,5.47s3.49-2.07,3.49-4.24H78.72a1.2,1.2,0,0,1-1.32-1.32V15.81a1.19,1.19,0,0,1,1.32-1.33h8.83a1.17,1.17,0,0,1,1.32,1.33v6c0,2.91-.61,10.72-11.08,10.72S66.71,24.68,66.71,21.77Z"/><path class="cls-3" d="M114.17,30.2c0,1-.44,1.5-1.32,1.5H107.9a1.18,1.18,0,0,1-1.32-1.32V26.53a1.17,1.17,0,0,0-1.33-1.32h-3.79a1.19,1.19,0,0,0-1.33,1.32v3.85a1.17,1.17,0,0,1-1.32,1.32h-5c-.84,0-1.32-.53-1.32-1.5V11.48C92.54,5.92,93.42,0,103.35,0s10.82,5.92,10.82,11.48Zm-7.59-18.72c0-2.12-.31-3.18-3.23-3.18s-3.22,1.06-3.22,3.18v4.81a1.22,1.22,0,0,0,1.33,1.33h3.79a1.23,1.23,0,0,0,1.33-1.37Z"/><path class="cls-3" d="M124.55,9.71a1.17,1.17,0,0,0-1.33-1.32H117a1.21,1.21,0,0,1-1.32-1.33V2.12A1.19,1.19,0,0,1,117,.79h22.61A1.17,1.17,0,0,1,141,2.12V7.06a1.19,1.19,0,0,1-1.32,1.33h-6.19a1.19,1.19,0,0,0-1.32,1.32V30.38a1.19,1.19,0,0,1-1.32,1.32h-4.95a1.21,1.21,0,0,1-1.32-1.32Z"/><path class="cls-3" d="M149.89.79a1.21,1.21,0,0,1,1.32,1.33v11a1.21,1.21,0,0,0,1.33,1.32h4.24a1.18,1.18,0,0,0,1.32-1.32v-11A1.21,1.21,0,0,1,159.42.79h5a1.17,1.17,0,0,1,1.32,1.33V30.38a1.19,1.19,0,0,1-1.32,1.32h-5a1.21,1.21,0,0,1-1.32-1.32v-7a1.17,1.17,0,0,0-1.32-1.32h-4.24a1.19,1.19,0,0,0-1.33,1.32v7a1.19,1.19,0,0,1-1.32,1.32h-4.95a1.21,1.21,0,0,1-1.32-1.32V2.12A1.17,1.17,0,0,1,144.94.79Z"/><path class="cls-3" d="M190,.79a1.17,1.17,0,0,1,1.32,1.33V7.06A1.19,1.19,0,0,1,190,8.39H179.29A1.18,1.18,0,0,0,178,9.71v1.42a1.21,1.21,0,0,0,1.32,1.32h6.84a1.17,1.17,0,0,1,1.33,1.33v4.94A1.19,1.19,0,0,1,186.13,20h-6.84A1.19,1.19,0,0,0,178,21.37v1.41a1.21,1.21,0,0,0,1.32,1.33H190a1.17,1.17,0,0,1,1.32,1.32v4.95A1.17,1.17,0,0,1,190,31.7H171.43a1.21,1.21,0,0,1-1.32-1.32V2.12A1.19,1.19,0,0,1,171.43.79Z"/><path class="cls-3" d="M218,29.32a1.57,1.57,0,0,1-1.46,2.38h-5a1.08,1.08,0,0,1-1-.62l-4.59-8.87a.46.46,0,0,0-.35-.22h-1.77a1.32,1.32,0,0,0-1.37,1.37v7A1.32,1.32,0,0,1,201,31.7h-4.94a1.32,1.32,0,0,1-1.37-1.37V2.16A1.32,1.32,0,0,1,196.07.79h9.67c7.85,0,11,3.36,11,10.6,0,4.11-1,7-3.35,8.65a.47.47,0,0,0-.13.58ZM203.75,8.39a1.32,1.32,0,0,0-1.37,1.37V13a1.32,1.32,0,0,0,1.37,1.37H206c2.12,0,3.18-.26,3.18-3s-1.06-3-3.18-3Z"/><polygon class="cls-4" points="31.85 32.9 34.69 32.46 35.3 33.85 37.53 34.79 35.3 35.74 34.69 37.13 31.85 36.68 29 37.13 28.4 35.74 26.16 34.79 28.4 33.85 29 32.46 31.85 32.9"/><polygon class="cls-4" points="45.9 22.78 48.75 22.34 49.35 23.73 51.59 24.67 49.35 25.62 48.75 27.01 45.9 26.56 43.06 27.01 42.45 25.62 40.21 24.67 42.45 23.73 43.06 22.34 45.9 22.78"/><polygon class="cls-4" points="23.97 23.34 26.82 22.9 27.42 24.29 29.66 25.23 27.42 26.18 26.82 27.57 23.97 27.12 21.13 27.57 20.53 26.18 18.29 25.23 20.53 24.29 21.13 22.9 23.97 23.34"/><path class="cls-5" d="M34.84,24.67A23,23,0,0,1,30.23,6.45"/><path class="cls-5" d="M18.85,44.32a16.55,16.55,0,0,0-12.38.38"/><path class="cls-3" d="M72.23,53.59H70.57V45.74H67.92v-1.4h7v1.4H72.23Z"/><path class="cls-3" d="M77.77,43.75v2.34q0,.42,0,.81c0,.26,0,.46-.06.59h.11a2,2,0,0,1,.88-.79,2.78,2.78,0,0,1,1.2-.26,2.67,2.67,0,0,1,1.87.61,2.55,2.55,0,0,1,.67,2v4.57H80.78V49.34a1.91,1.91,0,0,0-.31-1.18,1.17,1.17,0,0,0-1-.4,1.43,1.43,0,0,0-1.34.62,3.5,3.5,0,0,0-.37,1.78v3.43H76.14V43.75Z"/><path class="cls-3" d="M87.28,46.44a3,3,0,0,1,2.23.84,3.19,3.19,0,0,1,.82,2.34v.83H85.7a2.15,2.15,0,0,0,.53,1.49,1.85,1.85,0,0,0,1.4.52,5.71,5.71,0,0,0,1.22-.13,7.86,7.86,0,0,0,1.11-.4v1.31a5.08,5.08,0,0,1-1.08.36,6.36,6.36,0,0,1-1.33.12,4,4,0,0,1-1.82-.4,2.85,2.85,0,0,1-1.24-1.19,4,4,0,0,1-.45-2,3.89,3.89,0,0,1,.89-2.75A3.06,3.06,0,0,1,87.28,46.44Zm0,1.2a1.42,1.42,0,0,0-1.07.42,2,2,0,0,0-.47,1.25h3a2,2,0,0,0-.37-1.19A1.3,1.3,0,0,0,87.28,47.64Z"/><path class="cls-3" d="M101.21,53.59l-.84-2.45H96.89l-.83,2.45H94.3l3.39-9.29h1.89L103,53.59Zm-1.27-3.87-.8-2.39c0-.11-.09-.27-.16-.48s-.13-.43-.19-.65-.11-.4-.16-.55c0,.18-.09.38-.16.61l-.18.63c-.05.2-.1.35-.13.44l-.82,2.39Z"/><path class="cls-3" d="M107.73,46.44a2.43,2.43,0,0,1,2,.91,4.22,4.22,0,0,1,.75,2.72,4.2,4.2,0,0,1-.77,2.72,2.48,2.48,0,0,1-2,.93,2.45,2.45,0,0,1-1.26-.29,2.61,2.61,0,0,1-.76-.66h-.11c0,.17,0,.34.07.53a3.48,3.48,0,0,1,0,.55v2.84H104V46.57h1.33l.23.93h.08a2.63,2.63,0,0,1,.77-.75A2.32,2.32,0,0,1,107.73,46.44Zm-.47,1.32a1.35,1.35,0,0,0-1.22.52,2.74,2.74,0,0,0-.37,1.56v.21a3.53,3.53,0,0,0,.34,1.73,1.34,1.34,0,0,0,1.28.6,1.23,1.23,0,0,0,1.13-.63,3.42,3.42,0,0,0,.37-1.71,3.22,3.22,0,0,0-.37-1.68A1.26,1.26,0,0,0,107.26,47.76Z"/><path class="cls-3" d="M115.83,46.44a2.43,2.43,0,0,1,2,.91,4.22,4.22,0,0,1,.75,2.72,4.14,4.14,0,0,1-.77,2.72,2.47,2.47,0,0,1-2,.93,2.38,2.38,0,0,1-1.25-.29,2.65,2.65,0,0,1-.77-.66h-.1c0,.17,0,.34.07.53a5.21,5.21,0,0,1,0,.55v2.84h-1.63V46.57h1.32l.23.93h.08a2.8,2.8,0,0,1,.78-.75A2.31,2.31,0,0,1,115.83,46.44Zm-.47,1.32a1.37,1.37,0,0,0-1.22.52,2.82,2.82,0,0,0-.37,1.56v.21a3.65,3.65,0,0,0,.34,1.73,1.35,1.35,0,0,0,1.28.6,1.21,1.21,0,0,0,1.13-.63,3.31,3.31,0,0,0,.37-1.71,3.12,3.12,0,0,0-.37-1.68A1.25,1.25,0,0,0,115.36,47.76Z"/><path class="cls-3" d="M127.25,47.8h-1.69v5.79h-1.64V47.8H122.8V47l1.12-.46v-.48a2.33,2.33,0,0,1,.64-1.87,2.72,2.72,0,0,1,1.76-.53,4.35,4.35,0,0,1,.92.09,3.69,3.69,0,0,1,.7.18l-.42,1.22-.48-.12a2.65,2.65,0,0,0-.58-.06.8.8,0,0,0-.69.29,1.41,1.41,0,0,0-.21.84v.45h1.69Z"/><path class="cls-3" d="M134.68,50.07a3.75,3.75,0,0,1-.9,2.69,3.24,3.24,0,0,1-2.46,1,3.44,3.44,0,0,1-1.71-.43,3.07,3.07,0,0,1-1.18-1.24,4.32,4.32,0,0,1-.43-2,3.72,3.72,0,0,1,.9-2.69,3.23,3.23,0,0,1,2.46-.94,3.48,3.48,0,0,1,1.72.42,3,3,0,0,1,1.18,1.23A4.26,4.26,0,0,1,134.68,50.07Zm-5,0a3.19,3.19,0,0,0,.4,1.72,1.63,1.63,0,0,0,2.54,0,3.11,3.11,0,0,0,.4-1.72,3,3,0,0,0-.4-1.71,1.42,1.42,0,0,0-1.28-.6,1.4,1.4,0,0,0-1.27.6A3.09,3.09,0,0,0,129.67,50.07Z"/><path class="cls-3" d="M140.05,46.44l.37,0,.34,0L140.61,48,140.3,48,140,48a2.3,2.3,0,0,0-1,.22,1.7,1.7,0,0,0-.73.65A2.06,2.06,0,0,0,138,50v3.64h-1.63v-7h1.25l.24,1.22h.07a3,3,0,0,1,.86-1A2.1,2.1,0,0,1,140.05,46.44Z"/><path class="cls-3" d="M149.51,45.61a2.31,2.31,0,0,0-1.95.9,3.9,3.9,0,0,0-.7,2.47,4.11,4.11,0,0,0,.64,2.46,2.35,2.35,0,0,0,2,.88,5.38,5.38,0,0,0,1.14-.12c.38-.09.77-.2,1.16-.33v1.41a6.12,6.12,0,0,1-1.14.33,7.52,7.52,0,0,1-1.33.11,4.39,4.39,0,0,1-2.36-.59,3.53,3.53,0,0,1-1.38-1.66,6.43,6.43,0,0,1-.46-2.51,5.63,5.63,0,0,1,.51-2.46,4,4,0,0,1,1.48-1.68,4.4,4.4,0,0,1,2.39-.61,5.79,5.79,0,0,1,1.38.16,5.55,5.55,0,0,1,1.28.45l-.57,1.36a8.94,8.94,0,0,0-1-.39A3.29,3.29,0,0,0,149.51,45.61Z"/><path class="cls-3" d="M159.91,50.07a3.71,3.71,0,0,1-.91,2.69,3.21,3.21,0,0,1-2.46,1,3.44,3.44,0,0,1-1.71-.43,3.07,3.07,0,0,1-1.18-1.24,4.32,4.32,0,0,1-.42-2,3.72,3.72,0,0,1,.9-2.69,3.22,3.22,0,0,1,2.45-.94,3.45,3.45,0,0,1,1.72.42,2.92,2.92,0,0,1,1.18,1.23A4.14,4.14,0,0,1,159.91,50.07Zm-5,0a3.2,3.2,0,0,0,.39,1.72,1.64,1.64,0,0,0,2.55,0,3.19,3.19,0,0,0,.4-1.72,3.08,3.08,0,0,0-.4-1.71,1.44,1.44,0,0,0-1.28-.6,1.4,1.4,0,0,0-1.27.6A3.09,3.09,0,0,0,154.9,50.07Z"/><path class="cls-3" d="M169.63,46.44a2.41,2.41,0,0,1,1.8.61,2.72,2.72,0,0,1,.6,2v4.57H170.4V49.33c0-1-.4-1.57-1.19-1.57a1.35,1.35,0,0,0-1.22.56,3,3,0,0,0-.36,1.62v3.65H166V49.33c0-1-.4-1.57-1.2-1.57a1.27,1.27,0,0,0-1.23.62,3.88,3.88,0,0,0-.34,1.78v3.43h-1.63v-7h1.26l.23.92h.09a2,2,0,0,1,.88-.8,2.77,2.77,0,0,1,1.17-.25,3.12,3.12,0,0,1,1.33.26,1.78,1.78,0,0,1,.82.83h.13a1.9,1.9,0,0,1,.9-.83A3.05,3.05,0,0,1,169.63,46.44Z"/><path class="cls-3" d="M182.12,46.44a2.4,2.4,0,0,1,1.79.61,2.72,2.72,0,0,1,.6,2v4.57h-1.63V49.33c0-1-.4-1.57-1.19-1.57a1.35,1.35,0,0,0-1.22.56,3,3,0,0,0-.36,1.62v3.65h-1.63V49.33c0-1-.4-1.57-1.21-1.57a1.29,1.29,0,0,0-1.23.62,3.89,3.89,0,0,0-.33,1.78v3.43h-1.64v-7h1.26l.23.92h.09a2,2,0,0,1,.88-.8,2.8,2.8,0,0,1,1.17-.25,3.09,3.09,0,0,1,1.33.26,1.74,1.74,0,0,1,.82.83H180a1.88,1.88,0,0,1,.91-.83A3,3,0,0,1,182.12,46.44Z"/><path class="cls-3" d="M192.79,46.57v7H191.5l-.22-.91h-.07a2,2,0,0,1-.94.79,3.28,3.28,0,0,1-1.25.25,2.68,2.68,0,0,1-1.85-.61,2.56,2.56,0,0,1-.66-2V46.57h1.63v4.26a1.85,1.85,0,0,0,.31,1.18,1.18,1.18,0,0,0,1,.39,1.45,1.45,0,0,0,1.36-.63,3.55,3.55,0,0,0,.36-1.77V46.57Z"/><path class="cls-3" d="M198.63,46.44a2.6,2.6,0,0,1,1.84.61,2.52,2.52,0,0,1,.67,2v4.57h-1.63V49.34a1.91,1.91,0,0,0-.31-1.18,1.17,1.17,0,0,0-1-.4,1.43,1.43,0,0,0-1.34.62,3.5,3.5,0,0,0-.37,1.78v3.43h-1.63v-7h1.26l.23.92h.09a2,2,0,0,1,.93-.8A3.1,3.1,0,0,1,198.63,46.44Z"/><path class="cls-3" d="M204,43.86a1,1,0,0,1,.63.19.94.94,0,0,1,0,1.34,1.16,1.16,0,0,1-1.27,0,1,1,0,0,1,0-1.34A1.05,1.05,0,0,1,204,43.86Zm.82,2.71v7h-1.64v-7Z"/><path class="cls-3" d="M209.62,52.41a2.88,2.88,0,0,0,.59-.06,4.26,4.26,0,0,0,.54-.14v1.22a2.49,2.49,0,0,1-.68.21,4.74,4.74,0,0,1-.86.08,2.92,2.92,0,0,1-1.1-.2,1.58,1.58,0,0,1-.77-.68,2.8,2.8,0,0,1-.28-1.39V47.8h-.95v-.71l1-.57.51-1.49h1v1.54h2V47.8h-2v3.64a1,1,0,0,0,.26.73A1,1,0,0,0,209.62,52.41Z"/><path class="cls-3" d="M211.11,46.57h1.77l1.4,4a5.37,5.37,0,0,1,.23.75,4.66,4.66,0,0,1,.13.73h.06a5.14,5.14,0,0,1,.15-.72c.07-.26.15-.51.23-.76l1.35-4h1.76l-3,8a3.73,3.73,0,0,1-1.09,1.61,2.61,2.61,0,0,1-1.71.56,4.61,4.61,0,0,1-.56,0,3.14,3.14,0,0,1-.41-.07V55.3l.35.05a2.82,2.82,0,0,0,.42,0,1.32,1.32,0,0,0,1-.35,2.26,2.26,0,0,0,.56-.89l.21-.57Z"/></svg>